<svg id="Layer_1" data-name="Layer 1" xmlns="http://www.w3.org/2000/svg" viewBox="0 0 333.61 91.45"><defs><style>.cls-1{fill:#bfc031;}</style></defs><title>anagrama</title><path class="cls-1" d="M24.63,48.83c-5.85,13-11.63,13-14,13.54C0,63.24-.46,48.76.2,43.27.85,35.37,6.41,2,21,0c9.73-.59,11.63,8.56,11.78,12.29.07,2.34-1.1,2.85-2,2.49C29,1.05,24.12,3,23.46,3.54,12.56,14.44,6,49.56,6.78,55c2,6.37,8.49,2.27,10.68-1.46,3-5.12,11.27-28.46,12.07-30.66A2.43,2.43,0,0,1,31.36,22c2.34.59,5.93,6.07,5.12,9.29C33,51.68,30.41,62,33.49,62.95s13.24-4.46,16.75-29.49c1.39-2.19,2,1.39,2,1.39C50,63.68,35.61,67.49,31.58,66,20.9,63.24,24.63,49.41,24.63,48.83Z"/><path class="cls-1" d="M95.53,35.22C88.07,74.73,77.24,70.92,75.33,67.85c-5.49-5.56-6-21.14-5.41-26.27,0-4.1,4.61-20.12.59-17.34-6.07,5.34-11,20.56-11.78,21.88C60,51,58.65,51.83,57.56,52c-5.63.88-6.07-2.56-6.66-4.54-1.61-7-.66-15.73,1-22.54,0-1.32,2.27-2,3-1.39,2.78,1.61,5.34,2.93,4.76,6.15a81.21,81.21,0,0,0-1.1,10.17c3.51-10.24,7.83-15,10.17-17.34C72,19.2,79.21,23.59,80,28.34c.58,5.63-.44,11.34-1,15.44-2.34,13.68-.07,19.1.51,19.68,1.46,1.61,6.22,4.39,14.12-30.07a6.11,6.11,0,0,1,1.46.37A3.85,3.85,0,0,1,95.53,35.22Z"/><path class="cls-1" d="M110.74,36.24c-.66-12-3.73-9.73-3.73-9.73-7.9,7.83-8.56,27.07-6.44,27.22,2.49-.15,5.85-4.54,6.44-7.76,1.17-6.15,3.15-7,4.46-5.63,2,1.54,3.37,3.58,2.63,5.78-1.68,13.1,1,12.22,1.83,11.71,4.17-2.49,10-11.49,13-24.58,0,0,1-1.17,1.61-.22,1.1.58.66,2,.66,2-5.85,23.19-13.83,24.15-15.8,26.12-7.46,3.29-8-7.17-8.71-8.78-4.54,5.41-9.22,5.12-10.54,4.39-9.73-1.54-3.73-29.56,4.24-33.14,9.73-4.39,12.66,9.22,12.15,11.71Z"/><path class="cls-1" d="M143.74,46.71c1.46-7.46.88-8.12,1.46-9.8s1.54-1.76,3-.59c2.41,2,4.61,3.66,3.66,7.32a59.38,59.38,0,0,0-.44,6.51c.59-.07,10.61-3.8,14.27-16.75a2.2,2.2,0,0,1,1.46.15c.66.51.29,1.76.29,1.76-4.39,15.8-14.93,16.61-16.39,18.37-1.24,5.71-.8,10.39-3.44,26.41s-15.36,10.76-16.68,9.73c-8.85-8-.29-27.22,11.63-34.83a25.58,25.58,0,0,0,.59-5.41c-10.46,1.61-14.12-1.76-15.58-6.22-4-14,3.22-22.17,7.76-25.39,9.73-6.58,21.44,1,17.19,10.9.07.73-1.17,1.1-2.12-.07,1.1-9-2.34-9.88-5.56-10.24C136.13,18.68,129.25,48.46,143.74,46.71Zm-1.61,12.44s-13.83,13-11.34,25.46c1.32,3.44,5.34,4.24,6.29,3.07C142.2,82.19,141.76,61.41,142.13,59.15Z"/><path class="cls-1" d="M200.59,33.68s.51-.88,1.68-.07c.88.51.51,1.9.51,1.9-4.32,28.17-10.17,30.95-13.17,32.56-5.2,2.71-10.17.37-11.71-2.34-4.83-8.49-1-21.8.22-25.9-5.78,1.9-11-.15-13.24-2.85-2.27-4.24-4-7.17-2.63-12.29,1.68-4.76,5.78-6.15,8.34-4,4,3.37-.15,8.56-2,12.73,1.61,4.46,9.44,3.22,11.78,1.46,3.07-1.9,6.88-.59,6.58,3.37-.07,5.93-.8,7.17-1.54,12.51-1.9,14.12,2,14.49,2,14.49C195.47,66.53,200.59,33.68,200.59,33.68Zm-34.17-2.56c2-4.61,3.22-5.71,2.63-7.83,0,0-1.1-2.41-3.22.07A7.8,7.8,0,0,0,166.42,31.12Z"/><path class="cls-1" d="M217.85,36.24c-.66-12-3.73-9.73-3.73-9.73-7.9,7.83-8.56,27.07-6.44,27.22,2.49-.15,5.85-4.54,6.44-7.76,1.17-6.15,3.15-7,4.46-5.63,2,1.54,3.37,3.58,2.63,5.78-1.68,13.1,1,12.22,1.83,11.71,4.17-2.49,10-11.49,13-24.58,0,0,1-1.17,1.61-.22,1.1.58.66,2,.66,2-5.85,23.19-13.83,24.15-15.8,26.12-7.46,3.29-8-7.17-8.71-8.78-4.54,5.41-9.22,5.12-10.54,4.39-9.73-1.54-3.73-29.56,4.24-33.14,9.73-4.39,12.66,9.22,12.15,11.71Z"/><path class="cls-1" d="M278.43,66.9c2.2,1.46,10.68-.29,17.49-33.73,0,0,1.46-.29,1.68.07a5.25,5.25,0,0,1,.59,1.54c-8.78,44.7-22.75,36.88-25.32,35.12-7.24-6.29-.66-40.83.07-45.95.44-3.37-1.1-.58-1.68,0-5.63,10.39-9.22,22.75-10.83,26.27a5.18,5.18,0,0,0-.88,2.78c-.58,2-1.61,2.93-3.22,1.61-2.2-1.61-4.76-4-4.76-6.73-.59-6,3.22-21.07,2.41-21.8-1.9-.44-8.85,11.27-9.58,16.54s-3.37,5.63-4.68,4.9c-4.76-4.61-4.1-20-2.12-26.27.73-2.78,2.78-2.78,5-1.17,3.15,1.76,3.44,3.8,2.85,5.42-.58,3.22-1.32,10.24-1.32,10.83,4.1-8.12,6.15-10.39,8.12-12.58a2.88,2.88,0,0,1,3.88-.37c7.32,3.58,3.73,16.46,4.32,17.19,0-.59,7.1-16.61,10.61-20.71,3.66-3.58,10.68,2.78,10.17,8.78C279.6,38.88,276.68,63.9,278.43,66.9Z"/><path class="cls-1" d="M313,36.24c-.66-12-3.73-9.73-3.73-9.73-7.9,7.83-8.56,27.07-6.44,27.22,2.49-.15,5.85-4.54,6.44-7.76,1.17-6.15,3.15-7,4.46-5.63,2,1.54,3.37,3.58,2.63,5.78-1.68,13.1,1,12.22,1.83,11.71,4.17-2.49,10-11.49,13-24.58,0,0,1-1.17,1.61-.22,1.1.58.66,2,.66,2-5.85,23.19-13.83,24.15-15.8,26.12-7.46,3.29-8-7.17-8.71-8.78-4.54,5.41-9.22,5.12-10.54,4.39-9.73-1.54-3.73-29.56,4.24-33.14,9.73-4.39,12.66,9.22,12.15,11.71Z"/></svg>