<?xml version="1.0" encoding="utf-8"?>
<!-- Generator: Adobe Illustrator 20.1.0, SVG Export Plug-In . SVG Version: 6.00 Build 0)  -->
<svg version="1.1" id="Layer_1" xmlns="http://www.w3.org/2000/svg" xmlns:xlink="http://www.w3.org/1999/xlink" x="0px" y="0px"
	 viewBox="0 0 61.1 53.9" style="enable-background:new 0 0 61.1 53.9;" xml:space="preserve">	
		<polygon class="st0" points="50.1,22 47.3,19.2 55.4,11.1 47.2,2.8 50,0 61.1,11.1 		"/>	
		<polygon class="st0" points="50.1,53.9 47.3,51.1 55.4,42.9 47.2,34.7 50,31.9 61.1,42.9 		"/>	
		<polygon class="st0" points="18.8,44.9 0,44.9 0,40.9 16.2,40.9 30.9,8.7 55.4,8.7 55.4,12.7 33.5,12.7 		"/>	
		<polygon class="st0" points="30.9,44.9 16.2,12.7 0,12.7 0,8.7 18.8,8.7 33.5,40.9 55.4,40.8 55.4,44.8 		"/>	
		<rect x="0" y="40.9" class="st0" width="17.5" height="4"/>
</svg>
